<?xml version="1.0" standalone="no"?>
<!DOCTYPE svg PUBLIC "-//W3C//DTD SVG 20010904//EN"
 "http://www.w3.org/TR/2001/REC-SVG-20010904/DTD/svg10.dtd">
<svg version="1.0" xmlns="http://www.w3.org/2000/svg"
 width="1050.000000pt" height="600.000000pt" viewBox="0 0 1050.000000 600.000000"
 preserveAspectRatio="xMidYMid meet">

<g transform="translate(0.000000,600.000000) scale(0.100000,-0.100000)"
fill="#000000" stroke="none">
<path d="M440 3500 l0 -79 143 -3 142 -3 0 -475 c0 -518 -3 -546 -56 -620 -42
-58 -99 -84 -184 -85 -59 0 -77 4 -118 28 -56 33 -100 96 -123 175 -9 28 -18
52 -22 52 -18 0 -176 -30 -180 -34 -8 -8 17 -97 43 -154 34 -75 113 -154 187
-187 126 -57 305 -56 422 1 107 52 193 169 216 293 6 32 10 280 10 612 l0 559
-240 0 -240 0 0 -80z"/>
<path d="M1594 3250 c-197 -21 -322 -116 -358 -272 -6 -26 -5 -26 62 -33 37
-3 81 -8 98 -11 30 -4 32 -3 38 35 8 54 67 115 124 130 24 7 81 12 129 12 170
0 243 -75 243 -253 l0 -68 -32 0 c-155 -2 -401 -21 -448 -36 -84 -25 -143 -58
-184 -104 -53 -59 -77 -119 -83 -209 -14 -208 93 -346 284 -367 87 -9 202 9
271 42 58 29 138 104 167 158 11 20 22 36 25 36 3 0 11 -27 17 -60 23 -124 75
-165 208 -165 44 0 92 4 108 8 25 7 27 11 27 62 l0 55 -49 0 c-64 0 -78 6 -99
44 -15 27 -18 76 -23 381 -4 302 -8 357 -23 397 -21 57 -95 142 -145 168 -88
44 -224 64 -357 50z m334 -682 c-2 -78 -8 -103 -32 -152 -61 -124 -169 -196
-306 -204 -64 -3 -82 0 -120 20 -54 28 -87 74 -96 134 -16 110 29 204 120 249
57 28 155 40 359 44 l79 1 -4 -92z"/>
<path d="M2800 3249 c-214 -24 -348 -159 -396 -398 -13 -65 -15 -117 -11 -225
7 -205 44 -317 137 -419 181 -198 576 -176 719 40 27 40 77 171 69 179 -2 1
-44 5 -95 9 l-92 8 -12 -47 c-17 -67 -58 -119 -120 -150 -109 -54 -260 -25
-331 64 -111 140 -115 577 -7 714 38 49 104 79 184 84 134 8 221 -44 261 -156
l18 -49 50 4 c28 2 71 6 94 9 42 5 43 7 37 32 -51 211 -252 331 -505 301z"/>
<path d="M3817 3249 c-163 -24 -265 -129 -319 -328 -17 -64 -21 -106 -21 -261
0 -159 3 -196 22 -265 40 -147 99 -234 194 -281 69 -35 186 -51 277 -37 125
20 196 68 267 179 9 15 12 -49 12 -298 l1 -318 95 0 95 0 0 805 0 805 -90 0
-90 0 0 -34 c0 -18 -3 -61 -6 -95 l-7 -61 -35 50 c-77 110 -230 164 -395 139z
m273 -165 c54 -29 92 -72 116 -131 25 -58 44 -178 44 -271 -1 -314 -100 -465
-304 -465 -208 -1 -284 134 -274 487 6 197 26 273 90 342 52 57 107 75 205 70
55 -3 85 -11 123 -32z"/>
<path d="M6318 3249 c-206 -23 -336 -133 -400 -339 -20 -66 -23 -95 -23 -245
0 -151 3 -179 24 -245 32 -103 55 -145 115 -208 95 -101 244 -150 421 -139
171 11 295 71 367 177 55 82 55 87 -8 105 -106 31 -106 31 -136 -20 -51 -85
-165 -132 -298 -123 -122 9 -200 63 -251 173 -28 59 -56 203 -45 231 4 12 73
14 412 14 l407 0 -6 98 c-12 183 -60 315 -147 401 -97 97 -254 141 -432 120z
m169 -142 c123 -32 188 -121 218 -299 l6 -38 -312 0 -312 0 6 59 c9 106 65
201 143 247 76 45 158 55 251 31z"/>
<path d="M8635 3253 c-226 -16 -370 -133 -430 -349 -9 -33 -19 -117 -22 -194
-16 -400 139 -614 462 -637 167 -12 317 40 413 141 101 107 136 225 136 456
-1 173 -15 251 -64 355 -33 68 -103 141 -169 174 -76 39 -215 62 -326 54z
m196 -160 c64 -29 114 -89 140 -170 27 -85 37 -309 20 -423 -32 -206 -139
-299 -330 -288 -114 7 -182 49 -229 143 -85 170 -74 516 21 656 29 43 64 67
128 91 68 24 185 19 250 -9z"/>
<path d="M9916 3249 c-111 -16 -200 -75 -264 -172 l-27 -42 -3 98 -3 97 -91 0
-91 0 6 -122 c4 -66 7 -323 7 -570 l0 -448 89 0 90 0 3 388 c3 379 4 388 27
446 48 121 127 177 259 184 127 7 188 -23 229 -113 16 -36 18 -82 21 -472 l3
-433 95 0 94 0 0 388 c0 213 -5 426 -10 472 -14 110 -55 199 -113 241 -70 51
-204 75 -321 58z"/>
<path d="M7373 3235 c-167 -37 -263 -144 -263 -293 0 -77 17 -126 63 -178 67
-77 120 -101 361 -165 171 -46 210 -64 254 -114 28 -31 32 -43 32 -93 0 -77
-25 -116 -93 -147 -99 -46 -293 -43 -387 5 -42 22 -88 72 -102 112 -10 29 -19
29 -130 4 l-47 -11 24 -59 c57 -141 179 -208 400 -222 240 -15 417 54 484 188
27 53 31 72 31 142 0 101 -27 164 -94 223 -58 51 -132 81 -328 133 -176 47
-234 73 -265 120 -48 70 -19 164 62 205 34 17 60 20 165 20 121 0 127 -1 180
-31 41 -23 60 -42 75 -73 l20 -41 80 6 c44 3 82 8 84 10 9 8 -19 81 -48 126
-35 55 -82 89 -166 119 -78 28 -298 36 -392 14z"/>
<path d="M4730 2804 c0 -349 3 -437 16 -494 18 -79 61 -150 108 -180 117 -71
312 -78 436 -15 49 25 116 91 148 143 l19 33 7 -101 8 -100 86 0 87 0 -3 570
-2 570 -95 0 -94 0 -3 -392 -3 -393 -26 -55 c-58 -124 -137 -174 -276 -173
-122 0 -185 42 -213 142 -6 21 -10 205 -10 454 l0 417 -95 0 -95 0 0 -426z"/>
</g>
</svg>
